HIERARCHY
ROOT Hips
{
	OFFSET 0.000000 0.000000 0.000000 
	CHANNELS 6 Xposition Yposition Zposition Zrotation Xrotation Yrotation
	JOINT Spine
	{
		OFFSET -0.000000 8.280624 0.000000 
		CHANNELS 3 Zrotation Xrotation Yrotation
		JOINT Spine1
		{
			OFFSET -0.000000 24.860672 0.000000 
			CHANNELS 3 Zrotation Xrotation Yrotation
			JOINT Neck
			{
				OFFSET -0.000000 24.758574 2.250779 
				CHANNELS 3 Zrotation Xrotation Yrotation
				JOINT Head
				{
					OFFSET -0.000000 14.137651 -2.019665 
					CHANNELS 3 Zrotation Xrotation Yrotation
					End Site
					{
						OFFSET -0.000000 25.245806 0.000000 
					}
				}
			}
			JOINT LeftShoulder
			{
				OFFSET 4.021533 22.370487 -0.301823 
				CHANNELS 3 Zrotation Xrotation Yrotation
				JOINT LeftArm
				{
					OFFSET 12.928750 0.000000 0.000000 
					CHANNELS 3 Zrotation Xrotation Yrotation
					JOINT LeftForeArm
					{
						OFFSET 29.110218 0.000000 0.000000 
						CHANNELS 3 Zrotation Xrotation Yrotation
						JOINT LeftHand
						{
							OFFSET 26.112843 0.000000 0.000000 
							CHANNELS 3 Zrotation Xrotation Yrotation
							End Site
							{
								OFFSET 15.147485 0.000000 0.000000 
							}
						}
					}
				}
			}
			JOINT RightShoulder
			{
				OFFSET -4.040554 22.370487 -0.301823 
				CHANNELS 3 Zrotation Xrotation Yrotation
				JOINT RightArm
				{
					OFFSET -12.928750 0.000000 0.000000 
					CHANNELS 3 Zrotation Xrotation Yrotation
					JOINT RightForeArm
					{
						OFFSET -29.110218 0.000000 0.000000 
						CHANNELS 3 Zrotation Xrotation Yrotation
						JOINT RightHand
						{
							OFFSET -26.112843 0.000000 0.000000 
							CHANNELS 3 Zrotation Xrotation Yrotation
							End Site
							{
								OFFSET -15.147485 0.000000 0.000000 
							}
						}
					}
				}
			}
		}
	}
	JOINT LeftUpLeg
	{
		OFFSET 10.098323 0.000000 0.000000 
		CHANNELS 3 Zrotation Xrotation Yrotation
		JOINT LeftLeg
		{
			OFFSET -0.000000 -44.180832 0.000000 
			CHANNELS 3 Zrotation Xrotation Yrotation
			JOINT LeftFoot
			{
				OFFSET -0.000000 -40.401024 0.000000 
				CHANNELS 3 Zrotation Xrotation Yrotation
				JOINT LeftToeBase
				{
					OFFSET -0.000000 -6.563910 15.147485 
					CHANNELS 3 Zrotation Xrotation Yrotation
					End Site
					{
						OFFSET -0.000000 0.000000 4.039329 
					}
				}
			}
		}
	}
	JOINT RightUpLeg
	{
		OFFSET -10.098323 0.000000 0.000000 
		CHANNELS 3 Zrotation Xrotation Yrotation
		JOINT RightLeg
		{
			OFFSET -0.000000 -44.180832 0.000000 
			CHANNELS 3 Zrotation Xrotation Yrotation
			JOINT RightFoot
			{
				OFFSET -0.000000 -40.401024 0.000000 
				CHANNELS 3 Zrotation Xrotation Yrotation
				JOINT RightToeBase
				{
					OFFSET -0.000000 -6.563910 15.147485 
					CHANNELS 3 Zrotation Xrotation Yrotation
					End Site
					{
						OFFSET -0.000000 0.000000 4.039329 
					}
				}
			}
		}
	}
}
MOTION
Frames: 14
Frame Time: 0.008333
-42.999363 100.325760 -25.990883 -4.960179 30.745152 -176.514496 2.281652 13.905767 9.599617 1.441626 -13.485635 10.048232 -0.922570 24.684723 -22.415178 15.233944 19.405766 -24.021793 -1.394022 8.679714 -21.002914 -60.977913 17.668760 -36.939896 -33.095482 -15.939778 -85.543221 52.307602 -46.106228 -7.314112 -20.666451 -23.287617 18.700314 39.150761 36.789410 72.387611 2.561147 -18.116156 32.948204 26.498423 -20.181133 -6.057667 -6.634812 29.374765 -30.533575 -0.742072 2.721067 -11.188724 -6.278141 20.571861 5.476428 0.000000 0.000000 0.000000 -8.411463 50.536411 -1.653666 -3.946304 24.183727 10.509570 11.343967 36.705402 -26.697451 0.000000 0.000000 0.000000 
-42.980194 100.385429 -26.172955 -5.116745 30.622047 -176.007523 2.421021 13.952088 9.852018 1.604209 -13.489536 10.337903 -1.619867 24.473888 -22.392517 15.378803 19.361773 -24.051718 -1.938043 8.910817 -20.901651 -61.274216 16.600521 -36.390842 -30.691778 -16.560728 -87.364830 53.109432 -44.993683 -5.874811 -20.846525 -24.157089 19.096418 39.004250 37.056240 73.713478 1.274440 -17.683399 33.548061 26.991171 -19.295961 -5.476492 -6.465436 29.441418 -31.220583 -0.755567 2.576162 -11.099171 -6.174921 20.640686 5.503428 0.000000 0.000000 0.000000 -7.916615 50.691277 -1.310129 -3.983659 23.962732 10.483474 11.421319 37.108688 -26.569839 0.000000 0.000000 0.000000 
-42.981293 100.430771 -26.351488 -5.298241 30.432037 -175.468552 5.748586 13.525365 9.050655 -3.681597 -11.433066 9.364052 -0.834156 21.972651 -21.944122 15.379444 20.256149 -23.624020 1.292050 7.310449 -19.706812 -62.590370 15.825170 -36.391968 -28.337463 -17.891153 -89.885933 54.486637 -43.701401 -1.907592 -19.469492 -26.823912 20.111883 39.413727 36.725140 74.843903 0.136951 -17.434530 34.224758 27.268560 -18.626102 -4.985650 -6.316614 29.423771 -31.859383 -0.781341 2.457392 -11.117977 -6.172743 20.689182 5.605686 0.000000 0.000000 0.000000 -7.450726 50.780666 -1.203483 -4.078907 23.732914 10.484955 11.293166 37.566010 -26.142168 0.000000 0.000000 0.000000 
-42.990013 100.477303 -26.520752 -5.504833 30.174112 -174.878036 5.669869 13.538290 9.479860 -3.500958 -11.729552 9.793502 -0.754417 22.013382 -22.209515 15.111991 19.813669 -23.823793 0.799316 7.565121 -20.015566 -62.636459 14.975468 -36.114353 -25.888231 -19.167879 -91.504066 55.019440 -42.319511 0.585193 -19.645721 -27.382021 20.067795 38.487366 37.212650 76.283180 -1.163981 -17.390541 35.282887 27.125984 -18.114119 -4.677447 -6.169904 29.318811 -32.373291 -0.822758 2.359975 -11.272310 -6.172630 20.757734 5.683799 0.000000 0.000000 0.000000 -6.973473 50.805996 -1.156048 -4.167089 23.522984 10.536512 11.268581 37.947052 -25.813442 0.000000 0.000000 0.000000 
-43.005474 100.529900 -26.696957 -5.740923 29.866543 -174.144287 5.765585 13.442546 9.696628 -3.541642 -11.827641 10.009520 -0.876647 21.747633 -22.367397 14.772993 19.630430 -23.954189 0.385771 7.592447 -19.987392 -62.664116 14.099281 -35.772869 -23.468613 -19.771389 -92.479210 54.997971 -41.332138 -0.060380 -19.792454 -28.066034 20.304388 37.505409 37.478489 77.788773 -2.395394 -17.345467 36.493992 26.221413 -17.596579 -4.515236 -5.983338 29.161028 -32.907753 -0.874213 2.276701 -11.516748 -6.152969 20.839020 5.716931 0.000000 0.000000 0.000000 -6.382574 50.829689 -1.386922 -4.255221 23.247698 10.616551 11.360594 38.341866 -25.653864 0.000000 0.000000 0.000000 
-43.028767 100.590408 -26.893293 -5.940795 29.582287 -173.381378 5.883936 13.276975 9.971840 -3.661167 -11.872727 10.276233 -0.864385 21.736679 -22.531096 14.871277 19.200399 -24.070326 0.107224 7.631608 -20.225889 -62.639694 13.150218 -35.503559 -22.050009 -18.956495 -92.098732 54.915348 -42.736992 -8.754514 -19.859985 -28.240013 20.353144 35.970879 37.287388 79.632919 -3.440227 -17.408222 37.628998 25.615093 -17.202913 -4.205507 -5.740645 29.063150 -33.533623 -0.912953 2.141234 -11.697237 -6.120264 20.943041 5.725950 0.000000 0.000000 0.000000 -5.724171 50.903976 -1.714647 -4.324295 22.935690 10.837282 11.634493 38.704521 -25.746004 0.000000 0.000000 0.000000 
-43.093826 100.670715 -27.087629 -6.168551 29.366201 -172.549438 6.150394 13.219544 10.085437 -3.986931 -11.940620 10.381483 -0.703282 21.614073 -22.680336 14.544875 18.804737 -24.151554 -0.118127 7.638273 -20.214449 -62.540558 12.338980 -35.218128 -20.474455 -19.597523 -93.549507 55.438080 -42.562576 -9.169054 -19.906546 -28.820526 20.519106 35.008251 37.427147 80.789597 -4.643164 -17.551403 39.218697 25.272419 -16.836962 -4.041095 -5.537285 29.045263 -34.222672 -0.915381 2.014864 -11.805243 -6.089458 21.091702 5.718340 0.000000 0.000000 0.000000 -5.089933 51.042610 -2.120283 -4.354061 22.615429 10.903392 11.747191 39.146160 -25.615236 0.000000 0.000000 0.000000 
-43.148262 100.747597 -27.278027 -6.329509 29.151224 -171.621780 6.495419 13.180412 10.152897 -4.384917 -12.038770 10.441314 -0.388658 21.468676 -22.905922 14.098751 18.348978 -24.296450 -0.298555 7.603823 -20.217541 -61.892586 12.257659 -34.959923 -17.973997 -21.296335 -95.066650 56.254223 -41.870037 -8.170519 -19.916327 -29.270990 20.628281 33.884953 37.309456 82.065697 -5.626150 -17.760378 40.862106 24.625530 -16.616602 -4.118788 -5.194214 29.008753 -34.978767 -0.923771 1.935764 -11.938814 -5.988217 21.122868 5.594313 0.000000 0.000000 0.000000 -4.207676 51.180683 -2.774476 -4.371940 22.239050 10.748305 11.794947 39.718941 -25.383614 0.000000 0.000000 0.000000 
-43.220573 100.821541 -27.462811 -6.517030 29.010262 -170.701782 6.844773 13.217572 10.181379 -4.828796 -12.097116 10.463171 -0.346779 21.261753 -22.988382 14.198323 18.093832 -24.349924 -0.408097 7.490705 -20.129215 -60.543816 13.315029 -34.745426 -15.210410 -24.010563 -96.598328 57.217102 -41.877277 -7.583787 -20.082191 -29.819502 20.673574 33.272480 37.025005 83.067924 -6.297985 -17.827557 42.505947 23.809399 -16.288956 -3.991481 -4.911095 29.055828 -35.761890 -0.913377 1.815601 -12.189248 -6.006119 21.238548 5.719447 0.000000 0.000000 0.000000 -3.405048 51.381699 -3.444571 -4.310440 21.831255 10.556883 11.802064 40.353432 -25.252687 0.000000 0.000000 0.000000 
-43.294846 100.894203 -27.657360 -6.696166 28.893169 -169.758209 7.120570 13.328170 10.203968 -5.173131 -12.353935 10.476513 -0.215710 21.311571 -23.149569 14.167436 17.689068 -24.459272 -0.549550 7.398275 -20.079866 -59.998238 13.158214 -34.335625 -13.002772 -25.404615 -97.762108 57.498230 -41.257931 -7.348309 -19.995518 -30.063255 20.835819 32.442127 36.638924 83.918762 -6.874311 -18.033747 44.496494 23.073072 -16.117416 -3.967340 -4.603830 29.142702 -36.651440 -0.899553 1.656730 -12.531458 -6.192633 21.389910 6.096502 0.000000 0.000000 0.000000 -2.545235 51.597698 -4.267148 -4.351644 21.486292 10.664223 12.081192 40.778316 -25.343294 0.000000 0.000000 0.000000 
-43.395363 100.961662 -27.864582 -6.945446 28.817217 -168.738831 7.372673 13.457672 10.159970 -5.527539 -12.584572 10.420846 -0.062683 21.349224 -23.316912 14.004004 17.329056 -24.577141 -0.782369 7.441554 -19.913498 -62.385235 8.205042 -34.008610 -13.384868 -21.208445 -98.549294 55.947575 -39.048668 -9.475360 -19.942307 -30.483046 21.066391 31.900843 36.254185 84.535759 -7.240396 -18.258432 46.500004 22.307556 -16.020073 -3.912927 -4.365468 29.291702 -37.644176 -0.839587 1.545491 -12.641703 -6.181138 21.466326 6.218484 0.000000 0.000000 0.000000 -1.731898 51.891018 -5.077773 -4.322290 21.103794 10.664396 12.268869 41.238064 -25.341951 0.000000 0.000000 0.000000 
-43.505486 101.026344 -28.083185 -7.197943 28.793722 -167.784332 7.534906 13.571849 10.217072 -5.809062 -12.737234 10.465808 0.247490 21.320761 -23.603352 13.732455 17.062822 -24.823580 -0.974448 7.431975 -19.863230 -62.409542 6.959548 -33.813129 -12.119897 -21.178797 -99.700478 55.636826 -38.456993 -10.459258 -20.040764 -30.846369 21.081718 31.733837 35.824207 84.843910 -7.489399 -18.321363 48.790428 21.594007 -15.836915 -4.201694 -4.169451 29.519127 -38.667088 -0.748052 1.416850 -12.623424 -6.171237 21.554949 6.327417 0.000000 0.000000 0.000000 -0.981024 52.224171 -5.889584 -4.333439 20.706873 10.643074 12.329214 41.739967 -25.167229 0.000000 0.000000 0.000000 
-43.591763 101.076828 -28.290516 -7.395119 28.730980 -166.910873 7.690849 13.668324 10.257874 -6.053816 -12.902416 10.495591 0.063719 21.347698 -23.774843 14.258108 16.993307 -25.014774 -1.178434 7.342053 -19.714611 -62.379063 6.033064 -33.552753 -10.331122 -21.489742 -101.291313 56.158852 -36.871239 -9.375206 -20.112494 -31.385313 21.205038 31.621227 35.496063 85.012253 -7.726665 -18.617048 51.096382 21.001623 -15.870365 -4.435372 -3.926220 29.687668 -39.704197 -0.676622 1.285057 -12.521472 -6.141329 21.596973 6.381375 0.000000 0.000000 0.000000 -0.217600 52.475220 -6.610947 -4.327964 20.361820 10.663853 12.465144 42.133621 -25.123796 0.000000 0.000000 0.000000 
-43.682522 101.124641 -28.491911 -7.586539 28.665323 -166.086639 7.810259 13.791165 10.313541 -6.267256 -13.143661 10.536563 0.200892 21.581615 -23.940365 14.292503 16.393541 -25.103508 -1.437608 7.307759 -19.531271 -62.250637 4.951422 -33.390915 -8.603534 -21.686781 -102.542740 56.507084 -35.348331 -8.950034 -20.190569 -31.765932 21.253572 31.748629 35.170258 84.957344 -7.899561 -18.837336 53.750031 20.449141 -15.855794 -4.907281 -3.711444 29.840836 -40.699924 -0.595942 1.197168 -12.276658 -6.056989 21.597054 6.283223 0.000000 0.000000 0.000000 0.498403 52.709179 -7.218878 -4.294757 20.018541 10.541376 12.592141 42.496559 -25.022701 0.000000 0.000000 0.000000 
